<?xml version="1.0" encoding="UTF-8" standalone="no"?>
<!-- Created with Inkscape (http://www.inkscape.org/) -->

<svg
   xmlns:dc="http://purl.org/dc/elements/1.1/"
   xmlns:cc="http://creativecommons.org/ns#"
   xmlns:rdf="http://www.w3.org/1999/02/22-rdf-syntax-ns#"
   xmlns:svg="http://www.w3.org/2000/svg"
   xmlns="http://www.w3.org/2000/svg"
   xmlns:sodipodi="http://sodipodi.sourceforge.net/DTD/sodipodi-0.dtd"
   xmlns:inkscape="http://www.inkscape.org/namespaces/inkscape"
   width="38.091251mm"
   height="17.150753mm"
   viewBox="0 0 134.969 60.770384"
   id="svg2"
   version="1.1"
   inkscape:version="0.91 r13725"
   sodipodi:docname="apio-ide-logo.svg">
  <defs
     id="defs4">
    <clipPath
       clipPathUnits="userSpaceOnUse"
       id="clipPath5190">
      <path
         d="m 0,841.89 595.28,0 L 595.28,0 0,0 0,841.89 Z"
         id="path5192"
         inkscape:connector-curvature="0" />
    </clipPath>
  </defs>
  <sodipodi:namedview
     id="base"
     pagecolor="#ffffff"
     bordercolor="#666666"
     borderopacity="1.0"
     inkscape:pageopacity="0.0"
     inkscape:pageshadow="2"
     inkscape:zoom="7.9195959"
     inkscape:cx="71.865394"
     inkscape:cy="28.672928"
     inkscape:document-units="px"
     inkscape:current-layer="layer1"
     showgrid="false"
     inkscape:window-width="1920"
     inkscape:window-height="1016"
     inkscape:window-x="0"
     inkscape:window-y="27"
     inkscape:window-maximized="1"
     fit-margin-top="0"
     fit-margin-left="0"
     fit-margin-right="0"
     fit-margin-bottom="0" />
  <metadata
     id="metadata7">
    <rdf:RDF>
      <cc:Work
         rdf:about="">
        <dc:format>image/svg+xml</dc:format>
        <dc:type
           rdf:resource="http://purl.org/dc/dcmitype/StillImage" />
        <dc:title />
      </cc:Work>
    </rdf:RDF>
  </metadata>
  <g
     inkscape:label="Layer 1"
     inkscape:groupmode="layer"
     id="layer1"
     transform="translate(-155.13256,-158.09901)">
    <g
       id="g5177"
       inkscape:export-xdpi="100.02296"
       inkscape:export-ydpi="100.02296">
      <g
         inkscape:export-ydpi="90"
         inkscape:export-xdpi="90"
         transform="matrix(0.33836908,0,0,0.33836908,232.86125,178.36114)"
         id="g4163">
        <path
           inkscape:connector-curvature="0"
           d="M 103.96875,29.43727 C 106.08143,18.684552 104.89996,10.523975 99.90625,7.2810201 98.241679,6.2000351 96.24602,5.7270015 94,5.8122701 81.871494,6.2727205 62.301679,22.972344 46.3125,47.59352 27.362362,76.774173 20.627996,106.01897 31.28125,112.93727 c 5.056946,3.28402 13.115147,0.95604 22.21875,-5.53125"
           style="fill:none;stroke:#66595c;stroke-width:5;stroke-linecap:round"
           id="path4149" />
        <path
           inkscape:connector-curvature="0"
           d="m 113.6875,77.15602 c 8.99437,-3.489189 14.52504,-8.265012 14.8125,-13.75 0.6648,-12.685141 -26.94124,-24.429026 -61.6875,-26.25 -3.257461,-0.170716 -6.460588,-0.260544 -9.59375,-0.25 -30.287234,0.101927 -53.9287749,8.410341 -54.53125,19.90625 -0.286892,5.474225 4.7004836,10.782383 13.25,15.1875"
           style="fill:none;stroke:#66595c;stroke-width:5;stroke-linecap:round"
           id="path4151" />
        <path
           inkscape:connector-curvature="0"
           d="M 57,10.53102 C 50.846125,5.4251295 45.074552,2.683237 40.4375,3.0310201 39.20289,3.123617 38.061068,3.4278792 37,3.9685201 25.681946,9.7353567 29.297632,39.560643 45.09375,70.56227 c 15.796118,31.00163 37.775696,51.45434 49.09375,45.6875 10.8844,-5.54588 7.94666,-33.337754 -6.34375,-63.03125"
           style="fill:none;stroke:#66595c;stroke-width:5;stroke-linecap:round"
           id="path4153" />
        <path
           inkscape:connector-curvature="0"
           d="m 73.5,61 a 7.5,7.5 0 0 1 -15,0 7.5,7.5 0 1 1 15,0 z"
           style="fill:#66595c"
           id="path4155" />
      </g>
      <text
         inkscape:export-ydpi="90"
         inkscape:export-xdpi="90"
         sodipodi:linespacing="125%"
         id="text4169"
         y="172.60909"
         x="267.98975"
         style="font-style:normal;font-weight:normal;font-size:15px;line-height:125%;font-family:sans-serif;letter-spacing:0px;word-spacing:0px;fill:#00aa00;fill-opacity:1;stroke:none;stroke-width:1px;stroke-linecap:butt;stroke-linejoin:miter;stroke-opacity:1"
         xml:space="preserve"><tspan
           y="172.60909"
           x="267.98975"
           id="tspan4171"
           sodipodi:role="line">ide</tspan></text>
      <g
         id="g5184"
         inkscape:label="apio_logo"
         transform="matrix(0.57889259,0,0,-0.57889259,34.209886,461.67974)">
        <g
           id="g5186">
          <g
             id="g5188"
             clip-path="url(#clipPath5190)">
            <g
               id="g5194"
               transform="translate(314.4006,515.6674)">
              <path
                 d="m 0,0 c -0.096,-0.048 -0.177,-0.116 -0.177,-0.116 0.025,-0.003 0.071,-0.095 0.136,-0.263 -0.047,0.098 -0.094,0.193 -0.136,0.263 L -0.808,0.107 C -0.809,0.135 -0.81,0.16 -0.811,0.187 -0.479,0.11 -0.199,0.046 0,0 m 11.92,-70.776 c -0.206,1.951 -0.393,10.581 -0.547,20.651 0.618,2.04 0.522,5.098 0.419,8.83 -0.048,1.735 0.107,3.069 0.494,4.556 -0.099,-0.57 -0.185,-1.073 -0.251,-1.473 0.297,1.378 0.967,3.563 1.741,5.881 1.902,5.06 5.269,13.603 10.548,32.985 0,0 -0.099,-0.015 -0.24,-0.038 -0.006,0.003 -0.018,0.004 -0.027,0.006 0.024,0.009 0.054,0.023 0.074,0.029 C 23.052,0.635 17.328,0.536 16.324,0.273 L 16.232,0.268 16.22,0.229 C 16.211,0.223 16.188,0.218 16.182,0.213 16.087,0.108 15.794,-0.689 15.466,-1.7 c -0.124,-0.038 -0.211,-0.065 -0.211,-0.065 -0.081,-0.05 -0.175,-0.164 -0.269,-0.299 -0.039,-0.04 -0.07,-0.08 -0.1,-0.121 l -0.346,-0.29 c -0.209,-0.639 -0.943,-3.752 -1.874,-7.826 0.177,1.213 0.346,2.388 0.508,3.511 -0.177,-1.464 -0.312,-2.515 -0.312,-2.515 L 14.45,2.186 c 0.103,0.732 0.162,1.157 0.162,1.157 l -0.002,0 0.011,0.079 C 14.549,3.527 12.56,3.211 10.677,2.828 c 0.117,1.132 0.21,2.039 0.273,2.654 0.064,0.483 0.097,0.797 0.09,0.887 C 10.971,7.286 5.949,6.648 5.949,6.648 5.912,6.61 5.911,6.577 5.925,6.545 L 5.838,6.181 C 5.299,5.254 5.125,2.123 5.17,-1.779 L 4.751,5.435 4.143,5.72 l 0,0 -4.32,2.029 c 0,0 0.44,-4.208 1.047,-9.891 C 0.536,-0.903 0.322,-0.123 0.303,-0.07 0.253,0.068 0.138,0.06 0.033,0.016 -0.166,0.078 -0.462,0.172 -0.816,0.283 -0.878,1.655 -0.913,2.509 -0.913,2.509 -1.257,2.997 -4.555,1.825 -4.965,1.579 -5.02,1.546 -5.012,1.505 -4.961,1.459 -4.951,1.367 -4.927,1.223 -4.894,1.047 -4.838,0.67 -4.757,0.216 -4.675,0.02 c 0.682,-3.001 2.423,-9.683 3.742,-14.675 2.059,-8.443 4.206,-17.54 4.558,-20.162 0.704,-5.244 1.407,-11.104 1.688,-13.88 0.016,-0.157 0.046,-0.277 0.085,-0.371 -0.113,-9.609 -0.186,-18.123 -0.11,-19.287 0.185,-2.824 -2.026,-16.949 -0.921,-22.195 0.186,-0.886 0.483,-1.556 0.839,-2.082 0.008,-0.269 0.079,-0.743 0.464,-1.017 0.233,-0.165 0.297,-0.355 0.3,-0.517 -0.114,-0.024 -0.25,-0.179 -0.237,-0.265 0.023,-0.142 0.615,-0.409 1.395,-0.594 1.031,-0.276 2.624,-0.407 4.486,0.47 0,0 -0.307,0.571 0.031,0.939 0.223,0.245 0.495,0.721 0.568,1.047 3.136,4.437 0.185,17.258 -0.293,21.793"
                 style="fill:#00673a;fill-opacity:1;fill-rule:nonzero;stroke:none"
                 id="path5196"
                 inkscape:connector-curvature="0" />
            </g>
            <g
               id="g5198"
               transform="translate(314.4006,515.6674)">
              <path
                 d="m 0,0 c -0.096,-0.048 -0.177,-0.116 -0.177,-0.116 0.025,-0.003 0.071,-0.095 0.136,-0.263 -0.047,0.098 -0.094,0.193 -0.136,0.263 L -0.808,0.107 C -0.809,0.135 -0.81,0.16 -0.811,0.187 -0.479,0.11 -0.199,0.046 0,0 Z m 11.92,-70.776 c -0.206,1.951 -0.393,10.581 -0.547,20.651 0.618,2.04 0.522,5.098 0.419,8.83 -0.048,1.735 0.107,3.069 0.494,4.556 -0.099,-0.57 -0.185,-1.073 -0.251,-1.473 0.297,1.378 0.967,3.563 1.741,5.881 1.902,5.06 5.269,13.603 10.548,32.985 0,0 -0.099,-0.015 -0.24,-0.038 -0.006,0.003 -0.018,0.004 -0.027,0.006 0.024,0.009 0.054,0.023 0.074,0.029 C 23.052,0.635 17.328,0.536 16.324,0.273 L 16.232,0.268 16.22,0.229 C 16.211,0.223 16.188,0.218 16.182,0.213 16.087,0.108 15.794,-0.689 15.466,-1.7 c -0.124,-0.038 -0.211,-0.065 -0.211,-0.065 -0.081,-0.05 -0.175,-0.164 -0.269,-0.299 -0.039,-0.04 -0.07,-0.08 -0.1,-0.121 l -0.346,-0.29 c -0.209,-0.639 -0.943,-3.752 -1.874,-7.826 0.177,1.213 0.346,2.388 0.508,3.511 -0.177,-1.464 -0.312,-2.515 -0.312,-2.515 L 14.45,2.186 c 0.103,0.732 0.162,1.157 0.162,1.157 l -0.002,0 0.011,0.079 C 14.549,3.527 12.56,3.211 10.677,2.828 c 0.117,1.132 0.21,2.039 0.273,2.654 0.064,0.483 0.097,0.797 0.09,0.887 C 10.971,7.286 5.949,6.648 5.949,6.648 5.912,6.61 5.911,6.577 5.925,6.545 L 5.838,6.181 C 5.299,5.254 5.125,2.123 5.17,-1.779 L 4.751,5.435 4.143,5.72 l 0,0 -4.32,2.029 c 0,0 0.44,-4.208 1.047,-9.891 C 0.536,-0.903 0.322,-0.123 0.303,-0.07 0.253,0.068 0.138,0.06 0.033,0.016 -0.166,0.078 -0.462,0.172 -0.816,0.283 -0.878,1.655 -0.913,2.509 -0.913,2.509 -1.257,2.997 -4.555,1.825 -4.965,1.579 -5.02,1.546 -5.012,1.505 -4.961,1.459 -4.951,1.367 -4.927,1.223 -4.894,1.047 -4.838,0.67 -4.757,0.216 -4.675,0.02 c 0.682,-3.001 2.423,-9.683 3.742,-14.675 2.059,-8.443 4.206,-17.54 4.558,-20.162 0.704,-5.244 1.407,-11.104 1.688,-13.88 0.016,-0.157 0.046,-0.277 0.085,-0.371 -0.113,-9.609 -0.186,-18.123 -0.11,-19.287 0.185,-2.824 -2.026,-16.949 -0.921,-22.195 0.186,-0.886 0.483,-1.556 0.839,-2.082 0.008,-0.269 0.079,-0.743 0.464,-1.017 0.233,-0.165 0.297,-0.355 0.3,-0.517 -0.114,-0.024 -0.25,-0.179 -0.237,-0.265 0.023,-0.142 0.615,-0.409 1.395,-0.594 1.031,-0.276 2.624,-0.407 4.486,0.47 0,0 -0.307,0.571 0.031,0.939 0.223,0.245 0.495,0.721 0.568,1.047 3.136,4.437 0.185,17.258 -0.293,21.793 z"
                 style="fill:none;stroke:#00673a;stroke-width:2;stroke-linecap:round;stroke-linejoin:round;stroke-miterlimit:10;stroke-dasharray:none;stroke-opacity:1"
                 id="path5200"
                 inkscape:connector-curvature="0" />
            </g>
            <g
               id="g5202"
               transform="translate(338.5317,516.3186)">
              <path
                 d="M 0,0 C 0.113,0.002 0.193,0.003 0.193,0.003 0.174,0.039 0.1,0.031 0,0"
                 style="fill:#00673a;fill-opacity:1;fill-rule:nonzero;stroke:none"
                 id="path5204"
                 inkscape:connector-curvature="0" />
            </g>
            <g
               id="g5206"
               transform="translate(338.5317,516.3186)">
              <path
                 d="M 0,0 C 0.113,0.002 0.193,0.003 0.193,0.003 0.174,0.039 0.1,0.031 0,0 Z"
                 style="fill:none;stroke:#00673a;stroke-width:2;stroke-linecap:round;stroke-linejoin:round;stroke-miterlimit:10;stroke-dasharray:none;stroke-opacity:1"
                 id="path5208"
                 inkscape:connector-curvature="0" />
            </g>
            <g
               id="g5210"
               transform="translate(326.4355,477.455)">
              <path
                 d="m 0,0 c -0.09,-0.415 -0.153,-0.775 -0.166,-1.021 0,0 0.06,0.383 0.166,1.021"
                 style="fill:#00673a;fill-opacity:1;fill-rule:nonzero;stroke:none"
                 id="path5212"
                 inkscape:connector-curvature="0" />
            </g>
            <g
               id="g5214"
               transform="translate(326.4355,477.455)">
              <path
                 d="m 0,0 c -0.09,-0.415 -0.153,-0.775 -0.166,-1.021 0,0 0.06,0.383 0.166,1.021 z"
                 style="fill:none;stroke:#00673a;stroke-width:2;stroke-linecap:round;stroke-linejoin:round;stroke-miterlimit:10;stroke-dasharray:none;stroke-opacity:1"
                 id="path5216"
                 inkscape:connector-curvature="0" />
            </g>
            <g
               id="g5218"
               transform="translate(320.3498,522.3156)">
              <path
                 d="m 0,0 c 0,0 3.77,-0.344 5.091,-0.279 0,0 -2.766,-27.532 -3.691,-29.993 -0.925,-2.461 -3.362,26.621 -1.511,29.805 L 0,0 Z"
                 style="fill:#8ec549;fill-opacity:1;fill-rule:nonzero;stroke:none"
                 id="path5220"
                 inkscape:connector-curvature="0" />
            </g>
            <g
               id="g5222"
               transform="translate(323.2278,518.668)">
              <path
                 d="m 0,0 -1.836,-1.372 c 0,0 -0.894,-16.765 -0.939,-19.068 C -2.819,-22.744 0.447,-0.098 0,0"
                 style="fill:#8ec549;fill-opacity:1;fill-rule:nonzero;stroke:none"
                 id="path5224"
                 inkscape:connector-curvature="0" />
            </g>
            <g
               id="g5226"
               transform="translate(320.3498,522.3156)">
              <path
                 d="M 0,0 C 0,0 5.021,0.638 5.091,-0.279 5.16,-1.196 1.177,-24.823 1.177,-24.823 c 0,0 1.566,20.833 1.566,21.617 0,0.785 1.562,2.602 0.892,2.699 C 2.962,-0.409 -0.439,-0.45 0,0"
                 style="fill:#8ec549;fill-opacity:1;fill-rule:nonzero;stroke:none"
                 id="path5228"
                 inkscape:connector-curvature="0" />
            </g>
            <g
               id="g5230"
               transform="translate(319.6115,423.2267)">
              <path
                 d="M 0,0 C -0.01,-0.1 -0.062,-0.838 0.459,-1.208 0.98,-1.577 0.674,-2.08 0.674,-2.08 c 0,0 2.452,-1.578 5.729,-0.034 0,0 -0.306,0.571 0.031,0.939 0.337,0.369 0.797,1.276 0.49,1.377 C 6.618,0.303 0.092,1.007 0,0"
                 style="fill:#8ec549;fill-opacity:1;fill-rule:nonzero;stroke:none"
                 id="path5232"
                 inkscape:connector-curvature="0" />
            </g>
            <g
               id="g5234"
               transform="translate(320.1995,496.2608)">
              <path
                 d="m 0,0 5.147,7.414 c 0,0 0.421,-53.537 0.974,-58.783 0.553,-5.246 4.422,-21.59 -1.658,-23.204 0,0 -2.693,-1.023 -4.508,0.68 -0.605,0.568 -1.111,1.438 -1.387,2.75 -1.105,5.246 1.106,19.371 0.921,22.195 C -0.695,-46.123 0,0 0,0"
                 style="fill:#8ec549;fill-opacity:1;fill-rule:nonzero;stroke:none"
                 id="path5236"
                 inkscape:connector-curvature="0" />
            </g>
            <g
               id="g5238"
               transform="translate(321.8098,517.3604)">
              <path
                 d="m 0,0 7.203,1.65 c 0,0 -5.355,-38.468 -6.342,-40.319 -0.985,-1.85 -3.379,6.168 -3.379,6.168 L 0,0 Z"
                 style="fill:#8ec549;fill-opacity:1;fill-rule:nonzero;stroke:none"
                 id="path5240"
                 inkscape:connector-curvature="0" />
            </g>
            <g
               id="g5242"
               transform="translate(322.5558,521.6104)">
              <path
                 d="M 0,0 C 0,0 -1.969,0.637 -2.059,0.049 -2.147,-0.54 -2.596,-10.98 -2.596,-10.98 c 0,0 0.627,10.539 0.941,10.685 C -1.342,-0.147 0,0 0,0"
                 style="fill:#8ec549;fill-opacity:1;fill-rule:nonzero;stroke:none"
                 id="path5244"
                 inkscape:connector-curvature="0" />
            </g>
            <g
               id="g5246"
               transform="translate(338.7248,516.3215)">
              <path
                 d="m 0,0 c 0,0 -7.832,-0.104 -8.142,-0.441 -0.309,-0.34 -2.681,-7.907 -1.65,-6.608 C -8.761,-5.749 -0.264,0.499 0,0"
                 style="fill:#8ec549;fill-opacity:1;fill-rule:nonzero;stroke:none"
                 id="path5248"
                 inkscape:connector-curvature="0" />
            </g>
            <g
               id="g5250"
               transform="translate(330.633,515.9357)">
              <path
                 d="M 0,0 5.724,0.282 -0.102,-0.338 0,0 Z"
                 style="fill:#8ec549;fill-opacity:1;fill-rule:nonzero;stroke:none"
                 id="path5252"
                 inkscape:connector-curvature="0" />
            </g>
            <g
               id="g5254"
               transform="translate(309.4358,517.2462)">
              <path
                 d="m 0,0 c 0,0 3.514,1.351 4.052,0.931 0,0 0.844,-20.442 1.611,-23.302 0,0 -5.797,21.61 -5.663,22.371"
                 style="fill:#8ec549;fill-opacity:1;fill-rule:nonzero;stroke:none"
                 id="path5256"
                 inkscape:connector-curvature="0" />
            </g>
            <g
               id="g5258"
               transform="translate(321.5452,479.925)">
              <path
                 d="m 0,0 -2.394,41.178 -4.927,2.313 c 0,0 3.801,-36.396 4.506,-39.79 C -2.112,0.309 0,-2.005 0,0"
                 style="fill:#8ec549;fill-opacity:1;fill-rule:nonzero;stroke:none"
                 id="path5260"
                 inkscape:connector-curvature="0" />
            </g>
            <g
               id="g5262"
               transform="translate(317.9464,519.6008)">
              <path
                 d="M 0,0 2.059,-22.501 C 2.059,-22.501 -0.403,0 -0.314,0 -0.225,0 0,0.245 0,0"
                 style="fill:#8ec549;fill-opacity:1;fill-rule:nonzero;stroke:none"
                 id="path5264"
                 inkscape:connector-curvature="0" />
            </g>
            <g
               id="g5266"
               transform="translate(321.968,485.7852)">
              <path
                 d="m 0,0 c 0,0 -6.055,26.989 -7.744,29.766 l -4.788,1.695 c 0,0 7.885,-31.152 8.59,-36.396 0.704,-5.244 1.407,-11.104 1.688,-13.879 0.282,-2.777 4.366,4.626 4.225,6.939 C 1.83,-9.563 1.83,-0.617 0,0"
                 style="fill:#8ec549;fill-opacity:1;fill-rule:nonzero;stroke:none"
                 id="path5268"
                 inkscape:connector-curvature="0" />
            </g>
            <g
               id="g5270"
               transform="translate(320.7003,474.9904)">
              <path
                 d="m 0,0 c 0,0 0.423,5.706 1.69,9.715 1.267,4.011 6.336,26.836 6.758,28.532 0.423,1.696 9.576,3.084 9.576,3.084 C 8.632,6.847 5.29,6.674 5.492,-0.618 5.633,-5.707 5.773,-9.563 4.084,-11.259 2.394,-12.956 -0.282,-8.175 0,0"
                 style="fill:#8ec549;fill-opacity:1;fill-rule:nonzero;stroke:none"
                 id="path5272"
                 inkscape:connector-curvature="0" />
            </g>
            <g
               id="g5274"
               transform="translate(320.3507,443.6887)">
              <path
                 d="m 0,0 c 0,0 0.055,-1.97 -0.436,-4.596 -0.491,-2.627 -1.961,-14.266 0.818,-16.595 0,0 -1.445,3.461 -1.309,6.208 C -0.763,-11.699 0.163,-0.657 0,0"
                 style="fill:#8ec549;fill-opacity:1;fill-rule:nonzero;stroke:none"
                 id="path5276"
                 inkscape:connector-curvature="0" />
            </g>
            <g
               id="g5278"
               transform="translate(325.3654,457.1183)">
              <path
                 d="m 0,0 c 0.136,0.116 0.108,-9.252 0.381,-11.998 0.272,-2.745 1.908,-13.907 1.744,-15.937 -0.164,-2.029 -0.316,-7.038 -2.833,-6.984 0,0 1.96,1.135 2.342,6.566 0.382,5.432 -0.491,9.074 -0.654,9.91 C 0.816,-17.608 -1.199,-1.015 0,0"
                 style="fill:#8ec549;fill-opacity:1;fill-rule:nonzero;stroke:none"
                 id="path5280"
                 inkscape:connector-curvature="0" />
            </g>
            <g
               id="g5282"
               transform="translate(325.093,441.5988)">
              <path
                 d="m 0,0 c 0,0 1.416,-9.251 1.416,-11.102 0,-1.85 -0.109,-7.64 -2.726,-8.476 0,0 -0.544,0.239 -0.053,0.477 0.491,0.24 1.61,1.291 2.071,3.462 0.545,2.568 0.209,7.705 -0.055,9.611 C 0.381,-4.059 0,0 0,0"
                 style="fill:#8ec549;fill-opacity:1;fill-rule:nonzero;stroke:none"
                 id="path5284"
                 inkscape:connector-curvature="0" />
            </g>
            <g
               id="g5286"
               transform="translate(320.8419,441.9572)">
              <path
                 d="m 0,0 c 0,0 -2.181,-16.057 0.6,-19.22 0,0 0.38,-0.239 0.326,0.06 -0.054,0.298 -1.197,2.685 -1.362,4.237 C -0.71,-12.355 0,0 0,0"
                 style="fill:#8ec549;fill-opacity:1;fill-rule:nonzero;stroke:none"
                 id="path5288"
                 inkscape:connector-curvature="0" />
            </g>
            <g
               id="g5290"
               transform="translate(324.5481,436.2276)">
              <path
                 d="m 0,0 c 0,0 1.525,-11.342 -1.2,-13.61 0,0 -0.326,-0.179 -0.218,0.299 C -1.31,-12.834 0.926,-11.461 0,0"
                 style="fill:#8ec549;fill-opacity:1;fill-rule:nonzero;stroke:none"
                 id="path5292"
                 inkscape:connector-curvature="0" />
            </g>
            <g
               id="g5294"
               transform="translate(322.2043,422.2599)">
              <path
                 d="m 0,0 c 0,0 -2.234,1.611 -0.545,11.162 0,0 -0.322,-7.239 0,-8.417 C -0.055,0.954 0.599,0.06 0,0"
                 style="fill:#8ec549;fill-opacity:1;fill-rule:nonzero;stroke:none"
                 id="path5296"
                 inkscape:connector-curvature="0" />
            </g>
            <g
               id="g5298"
               transform="translate(323.4026,433.5411)">
              <path
                 d="m 0,0 c 0,0 1.146,-8.417 -0.49,-10.625 0,0 -0.327,-0.179 -0.055,0.418 C -0.272,-9.61 0.382,-5.134 0,0"
                 style="fill:#8ec549;fill-opacity:1;fill-rule:nonzero;stroke:none"
                 id="path5300"
                 inkscape:connector-curvature="0" />
            </g>
            <g
               id="g5302"
               transform="translate(320.3664,463.7852)">
              <path
                 d="m 0,0 c 0,0 0,-18.011 -0.133,-21.068 0,0 0.709,18.98 0.133,21.068"
                 style="fill:#8ec549;fill-opacity:1;fill-rule:nonzero;stroke:none"
                 id="path5304"
                 inkscape:connector-curvature="0" />
            </g>
            <g
               id="g5306"
               transform="translate(321.386,462.1349)">
              <path
                 d="m 0,0 c 0,0 -0.399,-19.613 0,-22.38 0,0 0.178,-0.389 0.178,-0.098 C 0.178,-22.187 -0.267,-0.485 0,0"
                 style="fill:#8ec549;fill-opacity:1;fill-rule:nonzero;stroke:none"
                 id="path5308"
                 inkscape:connector-curvature="0" />
            </g>
            <g
               id="g5310"
               transform="translate(322.3606,462.6202)">
              <path
                 d="m 0,0 c 0,0 -0.044,-20.826 -0.044,-21.943 0,0 0.443,21.555 0.044,21.943"
                 style="fill:#8ec549;fill-opacity:1;fill-rule:nonzero;stroke:none"
                 id="path5312"
                 inkscape:connector-curvature="0" />
            </g>
            <g
               id="g5314"
               transform="translate(323.8673,462.0861)">
              <path
                 d="m 0,0 c 0,0 -0.31,-22.04 0.621,-23.836 0,0 0.133,-0.049 0.088,0.242 C 0.666,-23.303 -0.487,-8.447 0,0"
                 style="fill:#8ec549;fill-opacity:1;fill-rule:nonzero;stroke:none"
                 id="path5316"
                 inkscape:connector-curvature="0" />
            </g>
            <g
               id="g5318"
               transform="translate(324.5764,463.9308)">
              <path
                 d="m 0,0 c 0,0 0,-19.612 0.267,-20.584 0,0 0.132,-0.097 0.177,0.194 C 0.488,-20.099 0,0 0,0"
                 style="fill:#8ec549;fill-opacity:1;fill-rule:nonzero;stroke:none"
                 id="path5320"
                 inkscape:connector-curvature="0" />
            </g>
            <g
               id="g5322"
               transform="translate(329.5471,513.7003)">
              <path
                 d="m 0,0 1.104,0.696 c 0,0 -2.649,-5.893 -7.256,-27.176 -0.653,-3.007 -1.46,-4.962 -1.998,-7.234 0,0 6.829,31.023 7.544,33.206 L 0,0 Z"
                 style="fill:#8ec549;fill-opacity:1;fill-rule:nonzero;stroke:none"
                 id="path5324"
                 inkscape:connector-curvature="0" />
            </g>
            <g
               id="g5326"
               transform="translate(314.2238,515.551)">
              <path
                 d="M 0,0 C 0,0 8.469,-29.91 8.167,-30.846 L 7.936,-32.32 c 0,0 -6.753,32.674 -10.593,33.179 L 0,0 Z"
                 style="fill:#8ec549;fill-opacity:1;fill-rule:nonzero;stroke:none"
                 id="path5328"
                 inkscape:connector-curvature="0" />
            </g>
            <g
               id="g5330"
               transform="translate(322.5695,479.2852)">
              <path
                 d="M 0,0 C 0,0 8.582,33.645 8.85,34.386 8.962,34.698 9.455,35.05 9.455,35.05 9.455,35.05 2.183,8.895 0,0"
                 style="fill:#8ec549;fill-opacity:1;fill-rule:nonzero;stroke:none"
                 id="path5332"
                 inkscape:connector-curvature="0" />
            </g>
            <g
               id="g5334"
               transform="translate(323.1428,479.3272)">
              <path
                 d="m 0,0 c 0,0 8.582,33.644 8.85,34.386 0.112,0.311 0.605,0.663 0.605,0.663 C 9.455,35.049 2.183,8.895 0,0"
                 style="fill:#8ec549;fill-opacity:1;fill-rule:nonzero;stroke:none"
                 id="path5336"
                 inkscape:connector-curvature="0" />
            </g>
            <g
               id="g5338"
               transform="translate(337.0587,515.9971)">
              <path
                 d="m 0,0 1.666,0.324 c 0,0 -6.272,-21.433 -7.242,-23.822 -0.971,-2.391 -5.092,-13.676 -5.213,-16.065 0,0 1.7,10.899 3.039,13.203 C -6.611,-24.401 2.06,0.133 0,0"
                 style="fill:#8ec549;fill-opacity:1;fill-rule:nonzero;stroke:none"
                 id="path5340"
                 inkscape:connector-curvature="0" />
            </g>
            <g
               id="g5342"
               transform="translate(334.7346,514.3898)">
              <path
                 d="m 0,0 c 0,0 -6.789,-23.233 -7.03,-25.49 0,0 7.272,25.224 8.121,25.623 L 0,0 Z"
                 style="fill:#8ec549;fill-opacity:1;fill-rule:nonzero;stroke:none"
                 id="path5344"
                 inkscape:connector-curvature="0" />
            </g>
            <g
               id="g5346"
               transform="translate(336.2092,514.67)">
              <path
                 d="M 0,0 -6.545,-20.977 0.607,0 0,0 Z"
                 style="fill:#8ec549;fill-opacity:1;fill-rule:nonzero;stroke:none"
                 id="path5348"
                 inkscape:connector-curvature="0" />
            </g>
            <g
               id="g5350"
               transform="translate(310.3908,515.5988)">
              <path
                 d="m 0,0 c 0,0 5.092,-17.923 6.425,-24.029 0.978,-4.483 2.666,-13.011 2.546,-15.268 0,0 -2.899,14.852 -3.032,15.798 C 5.455,-20.047 -0.605,-0.132 0,0"
                 style="fill:#8ec549;fill-opacity:1;fill-rule:nonzero;stroke:none"
                 id="path5352"
                 inkscape:connector-curvature="0" />
            </g>
            <g
               id="g5354"
               transform="translate(316.6916,521.6104)">
              <path
                 d="m 0,0 c 0,0 -1.636,0.746 -2.045,1.195 l 1.318,-11.052 c 0,0 -1.318,10.504 -1.045,10.454 C -1.499,0.548 -0.408,-0.1 0,0"
                 style="fill:#8ec549;fill-opacity:1;fill-rule:nonzero;stroke:none"
                 id="path5356"
                 inkscape:connector-curvature="0" />
            </g>
            <g
               id="g5358"
               transform="translate(321.7336,517.5656)">
              <path
                 d="M 0,0 C 0,0 -0.109,-0.825 0.065,-0.698 0.559,-0.339 7.425,1.324 7.288,1.523 7.152,1.723 0.167,0.418 0,0"
                 style="fill:#8ec549;fill-opacity:1;fill-rule:nonzero;stroke:none"
                 id="path5360"
                 inkscape:connector-curvature="0" />
            </g>
            <g
               id="g5362"
               transform="translate(328.0705,518.134)">
              <path
                 d="m 0,0 c 0,0 -5.241,-26.152 -5.146,-26.822 0,0 5.381,26.668 5.664,27.029 C 0.801,0.567 0,0.207 0,0"
                 style="fill:#8ec549;fill-opacity:1;fill-rule:nonzero;stroke:none"
                 id="path5364"
                 inkscape:connector-curvature="0" />
            </g>
            <g
               id="g5366"
               transform="translate(326.9885,517.5157)">
              <path
                 d="m 0,0 c 0,0 -4.312,-24.236 -4.218,-24.907 0,0 4.452,24.752 4.735,25.113 C 0.8,0.566 0,0.206 0,0"
                 style="fill:#8ec549;fill-opacity:1;fill-rule:nonzero;stroke:none"
                 id="path5368"
                 inkscape:connector-curvature="0" />
            </g>
            <g
               id="g5370"
               transform="translate(325.4348,516.9484)">
              <path
                 d="m 0,0 c 0,0 -3.254,-26.114 -3.16,-26.785 0,0 3.394,26.631 3.678,26.991 C 0.8,0.567 0,0.206 0,0"
                 style="fill:#8ec549;fill-opacity:1;fill-rule:nonzero;stroke:none"
                 id="path5372"
                 inkscape:connector-curvature="0" />
            </g>
            <g
               id="g5374"
               transform="translate(322.1808,516.1212)">
              <path
                 d="m 0,0 c 0,0 -1.505,-18.027 -1.458,-19.263 l 0.142,-1.236 c 0,0 1.316,20.446 1.928,21.013 C 0.612,0.514 0,0.257 0,0"
                 style="fill:#8ec549;fill-opacity:1;fill-rule:nonzero;stroke:none"
                 id="path5376"
                 inkscape:connector-curvature="0" />
            </g>
            <g
               id="g5378"
               transform="translate(312.1594,514.8165)">
              <path
                 d="M 0,0 C 0,0 0.225,0.163 0.448,-0.082 0.672,-0.328 9.101,-28.758 9.175,-30.392 9.175,-30.392 0.97,-1.471 0,0"
                 style="fill:#8ec549;fill-opacity:1;fill-rule:nonzero;stroke:none"
                 id="path5380"
                 inkscape:connector-curvature="0" />
            </g>
            <g
               id="g5382"
               transform="translate(310.9661,515.4698)">
              <path
                 d="M 0,0 C 0,0 0.225,0.163 0.447,-0.082 0.672,-0.327 8.056,-23.366 8.131,-24.999 8.131,-24.999 0.971,-1.471 0,0"
                 style="fill:#8ec549;fill-opacity:1;fill-rule:nonzero;stroke:none"
                 id="path5384"
                 inkscape:connector-curvature="0" />
            </g>
            <g
               id="g5386"
               transform="translate(318.0529,520.5344)">
              <path
                 d="m 0,0 0.746,0.082 c 0,0 1.491,-22.957 1.268,-23.773 0,0 -1.045,23.61 -2.014,23.691"
                 style="fill:#8ec549;fill-opacity:1;fill-rule:nonzero;stroke:none"
                 id="path5388"
                 inkscape:connector-curvature="0" />
            </g>
            <g
               id="g5390"
               transform="translate(313.4875,518.1768)">
              <path
                 d="m 0,0 c 0,0 -2.727,-1.05 -2.612,-1.174 0.268,-0.295 2.148,-1.079 1.611,-0.883 -0.537,0.197 -3.461,0.881 -3.051,1.126 C -3.642,-0.684 -0.344,0.487 0,0"
                 style="fill:#8ec549;fill-opacity:1;fill-rule:nonzero;stroke:none"
                 id="path5392"
                 inkscape:connector-curvature="0" />
            </g>
            <g
               id="g5394"
               transform="translate(329.6555,513.9025)">
              <path
                 d="m 0,0 c 0,0 8.712,2.711 8.866,2.372 0,0 -9.433,-3.105 -9.639,-3.557 C -0.98,-1.638 -0.361,-0.225 0,0"
                 style="fill:#8ec549;fill-opacity:1;fill-rule:nonzero;stroke:none"
                 id="path5396"
                 inkscape:connector-curvature="0" />
            </g>
            <g
               id="g5398"
               transform="translate(315.7863,520.7921)">
              <path
                 d="M 0,0 C 0,0 1.959,-15.812 2.011,-16.319 2.011,-16.319 0.361,0 0,0"
                 style="fill:#8ec549;fill-opacity:1;fill-rule:nonzero;stroke:none"
                 id="path5400"
                 inkscape:connector-curvature="0" />
            </g>
            <g
               id="g5402"
               transform="translate(314.2238,515.551)">
              <path
                 d="M 0,0 C 0,0 0.377,0.329 0.479,0.047 0.583,-0.235 6.15,-20.96 6.203,-22.371 6.203,-22.371 0.396,-0.048 0,0"
                 style="fill:#8ec549;fill-opacity:1;fill-rule:nonzero;stroke:none"
                 id="path5404"
                 inkscape:connector-curvature="0" />
            </g>
            <g
               id="g5406"
               transform="translate(325.6632,476.4181)">
              <path
                 d="m 0,0 c 0,0 0.419,-6.008 0.326,-7.483 -0.094,-1.477 0,-5.498 -2.185,-5.193 0,0 0.333,-0.04 1.255,1.476 C 0.512,-9.367 0.187,-0.561 0,0"
                 style="fill:#8ec549;fill-opacity:1;fill-rule:nonzero;stroke:none"
                 id="path5408"
                 inkscape:connector-curvature="0" />
            </g>
            <g
               id="g5410"
               transform="translate(318.5442,521.3878)">
              <path
                 d="M 0,0 0.607,-0.285 1.22,-12.925 0,0 Z"
                 style="fill:#8ec549;fill-opacity:1;fill-rule:nonzero;stroke:none"
                 id="path5412"
                 inkscape:connector-curvature="0" />
            </g>
            <g
               id="g5414"
               transform="translate(328.0178,518.5861)">
              <path
                 d="m 0,0 1.004,0.503 -1.759,-12.727 c 0,0 1.452,11.332 1.104,11.524 C 0,-0.509 0,0 0,0"
                 style="fill:#8ec549;fill-opacity:1;fill-rule:nonzero;stroke:none"
                 id="path5416"
                 inkscape:connector-curvature="0" />
            </g>
            <g
               id="g5418"
               transform="translate(329.7033,513.1105)">
              <path
                 d="m 0,0 c 0,0 -4.068,-15.278 -4.185,-16.424 0,0 5.232,16.806 5.58,16.934 C 1.744,0.637 0.232,0.255 0,0"
                 style="fill:#8ec549;fill-opacity:1;fill-rule:nonzero;stroke:none"
                 id="path5420"
                 inkscape:connector-curvature="0" />
            </g>
            <g
               id="g5422"
               transform="translate(309.4358,517.2462)">
              <path
                 d="m 0,0 c 0,0 0.215,-1.844 0.39,-1.652 0.174,0.191 0,1.146 0.233,1.082 0.231,-0.064 4.645,-1.078 4.645,-1.078 0,0 -5.228,1.651 -5.268,1.648"
                 style="fill:#8ec549;fill-opacity:1;fill-rule:nonzero;stroke:none"
                 id="path5424"
                 inkscape:connector-curvature="0" />
            </g>
            <g
               id="g5426"
               transform="translate(325.0539,485.3546)">
              <path
                 d="m 0,0 c 0,0 -1.918,-6.239 -1.744,-8.404 0,0 1.279,7.767 1.744,8.404"
                 style="fill:#8ec549;fill-opacity:1;fill-rule:nonzero;stroke:none"
                 id="path5428"
                 inkscape:connector-curvature="0" />
            </g>
            <g
               id="g5430"
               transform="translate(320.637,522.087)">
              <path
                 d="m 0,0 c 0,0 -0.466,-0.382 -0.466,-0.572 0,0 3.953,0.51 4.592,0.445 C 4.766,-0.19 0.464,0.128 0,0"
                 style="fill:#8ec549;fill-opacity:1;fill-rule:nonzero;stroke:none"
                 id="path5432"
                 inkscape:connector-curvature="0" />
            </g>
            <g
               id="g5434"
               transform="translate(320.1339,421.2365)">
              <path
                 d="m 0,0 c -0.02,0.129 0.298,0.44 0.371,0.178 0.071,-0.263 0.191,-0.209 0.286,-0.184 0.096,0.027 0.215,-0.183 0.215,-0.183 0,0 0.287,-0.158 0.383,-0.105 0.097,0.053 0.072,-0.131 0.216,-0.131 0.143,0 0.239,0.157 0.406,0.078 0.168,-0.078 0.359,-0.131 0.526,-0.104 0.168,0.026 0.312,0.053 0.503,0 0.192,-0.053 0.287,-0.079 0.383,0 0.097,0.079 0.407,0.183 0.647,0.131 0.238,-0.052 0.287,-0.027 0.429,0.052 0.145,0.079 0.193,0.079 0.312,0.027 0.119,-0.053 0.168,0.052 0.287,0.131 0.119,0.079 0.143,-0.079 0.264,0.025 0.119,0.106 0.142,0.368 0.214,0.263 0.073,-0.105 0.288,0 0.288,-0.131 l 0,-0.132 c 0,0 -1.34,-0.707 -2.751,-0.707 C 1.566,-0.792 0.037,-0.23 0,0"
                 style="fill:#8ec549;fill-opacity:1;fill-rule:nonzero;stroke:none"
                 id="path5436"
                 inkscape:connector-curvature="0" />
            </g>
            <g
               id="g5438"
               transform="translate(250.2595,449.073)">
              <path
                 d="m 0,0 c -2.147,9.056 -4.344,17.119 -6.528,23.971 -2.188,6.86 -4.818,13.27 -7.815,19.052 l -0.409,0 c -3,-5.788 -5.629,-12.197 -7.814,-19.052 C -24.752,17.12 -26.948,9.056 -29.094,0 L 0,0 Z m 4.309,-28.763 -0.01,0.115 c -0.556,6.705 -1.587,13.993 -3.065,21.663 l -31.559,0 c -0.187,-1.158 -0.462,-2.835 -0.824,-5.032 -0.375,-2.263 -0.674,-4.124 -0.899,-5.583 -0.228,-1.486 -0.473,-3.26 -0.729,-5.272 -0.262,-2.056 -0.469,-3.999 -0.617,-5.776 l -0.009,-0.115 -7.831,0 0.014,0.139 c 3.316,31.227 11.026,57.831 22.916,79.074 l 0.035,0.064 7.443,0 0.036,-0.064 C 1.098,29.207 8.808,2.603 12.126,-28.624 l 0.014,-0.139 -7.831,0 z"
                 style="fill:#00673a;fill-opacity:1;fill-rule:nonzero;stroke:none"
                 id="path5440"
                 inkscape:connector-curvature="0" />
            </g>
            <g
               id="g5442"
               transform="translate(235.5832,491.9716)">
              <path
                 d="m 0,0 0.257,0 c 2.98,-5.759 5.594,-12.139 7.772,-18.965 2.171,-6.809 4.354,-14.818 6.489,-23.809 l -28.778,0 c 2.134,8.992 4.317,17 6.489,23.809 C -5.596,-12.144 -2.982,-5.764 0,0 m 3.924,7.74 -0.147,0 -7.296,0 -0.147,0 -0.071,-0.128 C -15.635,-13.646 -23.35,-40.266 -26.668,-71.51 l -0.029,-0.277 0.278,0 7.577,0 0.23,0 0.019,0.23 c 0.147,1.775 0.355,3.717 0.616,5.77 0.256,2.011 0.501,3.784 0.729,5.269 0.224,1.459 0.523,3.319 0.898,5.582 0.351,2.131 0.621,3.774 0.808,4.927 l 31.349,0 c 1.467,-7.628 2.491,-14.877 3.044,-21.548 l 0.019,-0.23 0.23,0 7.577,0 0.278,0 -0.029,0.277 C 23.607,-40.266 15.892,-13.646 3.995,7.612 L 3.924,7.74 Z m -18.5,-50.764 29.41,0 c -2.171,9.167 -4.36,17.212 -6.567,24.135 C 6.059,-11.967 3.44,-5.587 0.41,0.25 l -0.562,0 c -3.031,-5.837 -5.65,-12.217 -7.857,-19.139 -2.209,-6.923 -4.398,-14.968 -6.567,-24.135 M 3.777,7.49 c 11.936,-21.328 19.569,-47.671 22.9,-79.027 l -7.577,0 c -0.562,6.773 -1.591,14.033 -3.087,21.778 l -31.768,0 c -0.188,-1.16 -0.468,-2.872 -0.842,-5.136 -0.374,-2.265 -0.674,-4.125 -0.898,-5.585 -0.224,-1.459 -0.469,-3.218 -0.73,-5.275 -0.262,-2.059 -0.468,-3.986 -0.617,-5.782 l -7.577,0 c 3.329,31.356 10.963,57.699 22.9,79.027 l 7.296,0"
                 style="fill:#d1d3d4;fill-opacity:1;fill-rule:nonzero;stroke:none"
                 id="path5444"
                 inkscape:connector-curvature="0" />
            </g>
            <g
               id="g5446"
               transform="translate(283.18,456.4812)">
              <path
                 d="m 0,0 c 1.593,0 2.875,0.028 3.809,0.084 0.923,0.056 2.148,0.197 3.637,0.42 1.477,0.222 2.873,0.634 4.148,1.225 1.274,0.589 2.482,1.376 3.591,2.338 1.81,1.552 3.272,3.567 4.345,5.99 1.073,2.422 1.617,5.116 1.617,8.003 0,2.886 -0.544,5.579 -1.617,8.003 -1.074,2.424 -2.536,4.439 -4.345,5.99 -1.108,0.96 -2.316,1.747 -3.591,2.339 -1.276,0.591 -2.671,1.003 -4.148,1.225 C 5.962,35.839 4.738,35.98 3.809,36.036 2.883,36.092 1.602,36.12 0,36.12 l -8.238,0 L -8.238,0 0,0 Z m -15.672,-36.171 0,79.276 15.672,0 c 1.825,0 3.348,-0.038 4.526,-0.112 1.178,-0.075 2.787,-0.274 4.783,-0.591 2.004,-0.319 3.942,-0.926 5.759,-1.807 1.816,-0.879 3.534,-2.028 5.108,-3.414 5.577,-4.941 8.406,-11.375 8.406,-19.121 0,-7.746 -2.829,-14.179 -8.406,-19.121 C 18.604,-2.446 16.885,-3.595 15.068,-4.475 13.251,-5.355 11.313,-5.964 9.309,-6.281 7.315,-6.599 5.706,-6.798 4.526,-6.873 3.355,-6.947 1.833,-6.985 0,-6.985 l -8.238,0 0,-29.186 -7.434,0 z"
                 style="fill:#00673a;fill-opacity:1;fill-rule:nonzero;stroke:none"
                 id="path5448"
                 inkscape:connector-curvature="0" />
            </g>
            <g
               id="g5450"
               transform="translate(275.0665,492.4765)">
              <path
                 d="m 0,0 8.113,0 c 1.599,0 2.878,-0.028 3.802,-0.084 0.925,-0.055 2.145,-0.196 3.626,-0.418 1.465,-0.22 2.849,-0.629 4.114,-1.215 1.264,-0.587 2.462,-1.367 3.561,-2.319 1.796,-1.54 3.247,-3.54 4.313,-5.946 1.066,-2.409 1.606,-5.085 1.606,-7.953 0,-2.87 -0.54,-5.545 -1.606,-7.953 -1.065,-2.404 -2.516,-4.405 -4.312,-5.945 -1.101,-0.955 -2.299,-1.735 -3.562,-2.321 -1.263,-0.585 -2.647,-0.994 -4.114,-1.214 -1.486,-0.222 -2.706,-0.363 -3.626,-0.419 -0.924,-0.055 -2.203,-0.083 -3.802,-0.083 L 0,-35.87 0,0 Z m 8.113,7.235 -15.547,0 -0.25,0 0,-0.25 0,-79.027 0,-0.25 0.25,0 7.184,0 0.25,0 0,0.25 0,28.937 8.113,0 c 1.835,0 3.361,0.037 4.534,0.112 1.182,0.075 2.795,0.274 4.795,0.592 2.015,0.32 3.964,0.932 5.794,1.818 1.826,0.885 3.554,2.04 5.136,3.434 5.606,4.966 8.448,11.43 8.448,19.214 0,7.784 -2.842,14.248 -8.448,19.214 -1.582,1.394 -3.31,2.549 -5.136,3.434 -1.828,0.885 -3.778,1.497 -5.794,1.818 -2,0.317 -3.613,0.516 -4.795,0.592 -1.181,0.074 -2.706,0.112 -4.534,0.112 m -8.363,-43.355 8.363,0 c 1.609,0 2.881,0.028 3.817,0.084 0.935,0.056 2.151,0.197 3.648,0.421 1.496,0.224 2.891,0.636 4.182,1.235 1.29,0.598 2.497,1.384 3.62,2.357 1.832,1.572 3.292,3.583 4.378,6.034 1.084,2.45 1.627,5.135 1.627,8.054 0,2.919 -0.543,5.603 -1.627,8.054 -1.086,2.45 -2.546,4.463 -4.378,6.034 -1.123,0.972 -2.33,1.758 -3.62,2.357 -1.291,0.598 -2.686,1.011 -4.182,1.235 C 14.081,-0.03 12.865,0.11 11.93,0.166 10.994,0.222 9.722,0.25 8.113,0.25 l -8.363,0 0,-36.37 M 8.113,6.985 c 1.833,0 3.34,-0.037 4.518,-0.112 1.179,-0.075 2.769,-0.271 4.771,-0.589 2.001,-0.319 3.91,-0.917 5.725,-1.796 1.815,-0.88 3.508,-2.012 5.08,-3.396 5.575,-4.939 8.363,-11.281 8.363,-19.027 0,-7.746 -2.788,-14.088 -8.363,-19.027 -1.572,-1.385 -3.265,-2.517 -5.08,-3.396 -1.815,-0.879 -3.724,-1.478 -5.725,-1.796 -2.002,-0.318 -3.592,-0.514 -4.771,-0.589 -1.178,-0.075 -2.685,-0.112 -4.518,-0.112 l -8.363,0 0,-29.187 -7.184,0 0,79.027 15.547,0"
                 style="fill:#d1d3d4;fill-opacity:1;fill-rule:nonzero;stroke:none"
                 id="path5452"
                 inkscape:connector-curvature="0" />
            </g>
            <g
               id="g5454"
               transform="translate(360.9705,494.3982)" />
            <g
               id="g5458"
               transform="translate(360.9704,427.4203)" />
          </g>
        </g>
      </g>
    </g>
  </g>
</svg>
